<svg width="557" height="180" viewBox="0 0 557 180" fill="none" xmlns="http://www.w3.org/2000/svg">
<path d="M82.1474 179.833C80.9002 179.833 79.6719 179.471 78.6151 178.749C76.8728 177.58 75.835 175.612 75.835 173.521V101.443C75.835 98.8672 77.4059 96.5479 79.7957 95.5879L155.669 65.1237C157.621 64.3348 159.83 64.5724 161.572 65.751C163.314 66.9297 164.352 68.8878 164.352 70.9884L164.19 143.057C164.19 145.623 162.619 147.933 160.229 148.893L84.5181 179.367C83.7565 179.671 82.9567 179.823 82.1569 179.823L82.1474 179.833ZM88.4694 105.711V164.177L151.546 138.789L151.68 80.332L88.4694 105.711Z" fill="#FAFAFA"/>
<path d="M6.31245 115.159C5.0652 115.159 3.83698 114.798 2.78014 114.075C1.03779 112.906 0 110.939 0 108.848V36.7791C0 34.2032 1.57097 31.8839 3.96075 30.9239L79.8244 0.459706C81.7762 -0.329226 83.9851 -0.0915961 85.7275 1.08705C87.4698 2.2657 88.5076 4.22377 88.5076 6.32442L88.3458 78.3929C88.3458 80.9593 86.7748 83.2691 84.385 84.2291L8.67367 114.703C7.91199 115.007 7.11222 115.159 6.31245 115.159ZM12.6344 41.0374V99.504L75.7113 74.1156L75.8446 15.6585L12.6344 41.0374Z" fill="#FAFAFA"/>
<path d="M44.225 147.496C42.9778 147.496 41.7496 147.135 40.6927 146.412C38.9504 145.243 37.9126 143.276 37.9126 141.184V69.1064C37.9126 66.5305 39.4836 64.2112 41.8734 63.2512L117.747 32.787C119.698 32.0075 121.907 32.2357 123.65 33.4143C125.392 34.593 126.43 36.551 126.43 38.6517L126.268 110.72C126.268 113.287 124.697 115.596 122.307 116.556L46.5958 147.03C45.8341 147.334 45.0343 147.486 44.2346 147.486L44.225 147.496ZM50.547 73.3742V131.841L113.624 106.452L113.757 47.9953L50.547 73.3742Z" fill="#B8B8B8"/>
<mask id="mask0_6597_64" style="mask-type:luminance" maskUnits="userSpaceOnUse" x="110" y="68" width="29" height="33">
<path d="M130.371 68.1939C120.46 67.576 105.921 83.887 111.187 94.2667C114.462 100.702 127.21 102.422 132.59 98.0212C140.359 91.6527 140.445 72.9465 130.371 68.1939C140.454 72.9465 120.46 67.576 130.371 68.1939Z" fill="white"/>
</mask>
<g mask="url(#mask0_6597_64)">
<path d="M44.225 147.496C42.9778 147.496 41.7496 147.135 40.6927 146.412C38.9504 145.243 37.9126 143.276 37.9126 141.184V69.1064C37.9126 66.5305 39.4836 64.2112 41.8734 63.2512L117.747 32.787C119.698 32.0075 121.907 32.2357 123.65 33.4143C125.392 34.593 126.43 36.551 126.43 38.6517L126.268 110.72C126.268 113.287 124.697 115.596 122.307 116.556L46.5958 147.03C45.8341 147.334 45.0343 147.486 44.2346 147.486L44.225 147.496ZM50.547 73.3742V131.841L113.624 106.452L113.757 47.9953L50.547 73.3742Z" fill="#B8B8B8"/>
<path d="M82.1474 179.833C80.9002 179.833 79.6719 179.471 78.6151 178.749C76.8728 177.58 75.835 175.612 75.835 173.521V101.443C75.835 98.8672 77.4059 96.5479 79.7957 95.5879L155.669 65.1237C157.621 64.3348 159.83 64.5724 161.572 65.751C163.314 66.9297 164.352 68.8878 164.352 70.9884L164.19 143.057C164.19 145.623 162.619 147.933 160.229 148.893L84.5181 179.367C83.7565 179.671 82.9567 179.823 82.1569 179.823L82.1474 179.833ZM88.4694 105.711V164.177L151.546 138.789L151.68 80.332L88.4694 105.711Z" fill="#E6E6E6"/>
</g>
<mask id="mask1_6597_64" style="mask-type:luminance" maskUnits="userSpaceOnUse" x="31" y="79" width="28" height="31">
<path d="M48.5571 82.043C38.541 83.022 30.9813 87.1092 31.4288 98.3064C31.7715 106.738 36.9891 110.416 45.2629 109.266C55.1838 107.878 58.1544 94.6279 58.3638 86.0542C58.4019 84.2957 58.7637 76.53 48.5571 82.0525C38.541 83.0315 58.7637 76.53 48.5571 82.0525V82.043Z" fill="white"/>
</mask>
<g mask="url(#mask1_6597_64)">
<path d="M44.225 147.496C42.9778 147.496 41.7496 147.135 40.6927 146.412C38.9504 145.243 37.9126 143.276 37.9126 141.184V69.1064C37.9126 66.5305 39.4836 64.2112 41.8734 63.2512L117.747 32.787C119.698 32.0075 121.907 32.2357 123.65 33.4143C125.392 34.593 126.43 36.551 126.43 38.6517L126.268 110.72C126.268 113.287 124.697 115.596 122.307 116.556L46.5958 147.03C45.8341 147.334 45.0343 147.486 44.2346 147.486L44.225 147.496ZM50.547 73.3742V131.841L113.624 106.452L113.757 47.9953L50.547 73.3742Z" fill="#B8B8B8"/>
<path d="M6.31221 115.159C5.06495 115.159 3.83674 114.798 2.7799 114.076C1.03755 112.906 -0.000244141 110.939 -0.000244141 108.848V36.7792C-0.000244141 34.2033 1.57073 31.884 3.96051 30.924L79.8242 0.459767C81.776 -0.329165 83.9849 -0.0915351 85.7272 1.08711C87.4696 2.26576 88.5074 4.22383 88.5074 6.32448L88.3455 78.393C88.3455 80.9594 86.7745 83.2692 84.3848 84.2292L8.67343 114.703C7.91174 115.007 7.11198 115.159 6.31221 115.159ZM12.6342 41.0375V99.5041L75.7111 74.1156L75.8444 15.6586L12.6342 41.0375Z" fill="#E6E6E6"/>
</g>
<path d="M215.052 59.5156H228.391V112.184H256.268V123.172H215.042V59.5156H215.052Z" fill="#FAFAFA"/>
<path d="M270.655 122.079C268.255 120.862 266.38 119.17 265.047 117.003C263.714 114.836 263.038 112.384 263.038 109.618V109.532C263.038 106.652 263.761 104.19 265.199 102.146C266.646 100.103 268.741 98.4965 271.492 97.3178C274.244 96.1392 277.586 95.4168 281.499 95.1602L299.97 94.01V102.042L283.441 103.145C280.966 103.297 279.081 103.867 277.786 104.865C276.491 105.863 275.844 107.203 275.844 108.876V108.962C275.844 110.701 276.51 112.06 277.833 113.039C279.157 114.028 280.937 114.513 283.184 114.513C285.098 114.513 286.812 114.142 288.335 113.391C289.849 112.64 291.049 111.614 291.915 110.302C292.781 108.99 293.219 107.526 293.219 105.911V91.5292C293.219 89.438 292.553 87.7936 291.23 86.5865C289.906 85.3793 287.973 84.7805 285.441 84.7805C282.908 84.7805 281.109 85.2747 279.7 86.2538C278.29 87.2423 277.415 88.497 277.091 90.0273L277.005 90.4266H265.161L265.209 89.8943C265.475 86.9857 266.456 84.4003 268.151 82.1285C269.845 79.8663 272.197 78.0888 275.215 76.8151C278.233 75.5319 281.823 74.8951 285.974 74.8951C290.125 74.8951 293.619 75.5509 296.618 76.8626C299.627 78.1743 301.96 80.0184 303.626 82.3947C305.292 84.7805 306.12 87.556 306.12 90.7307V123.153H293.219V116.138H292.953C292.039 117.726 290.887 119.113 289.506 120.282C288.126 121.461 286.536 122.355 284.755 122.972C282.975 123.59 281.052 123.894 278.985 123.894C275.834 123.894 273.054 123.286 270.655 122.06V122.079Z" fill="#FAFAFA"/>
<path d="M329.552 120.301C325.001 117.659 321.487 113.876 319.012 108.962C316.536 104.048 315.299 98.1733 315.299 91.3201V91.2725C315.299 84.4193 316.536 78.5451 319.012 73.6499C321.487 68.7547 325.001 64.9906 329.552 62.3577C334.103 59.7247 339.482 58.413 345.699 58.413C350.85 58.413 355.449 59.4111 359.486 61.4167C363.523 63.4128 366.76 66.1693 369.207 69.6672C371.654 73.1651 373.082 77.1668 373.491 81.6628L373.539 82.1H360.505L360.324 81.3491C359.819 79.0013 358.924 76.9577 357.629 75.2182C356.334 73.4788 354.687 72.129 352.678 71.1595C350.679 70.19 348.346 69.7052 345.699 69.7052C342.281 69.7052 339.32 70.5797 336.816 72.3286C334.312 74.0776 332.379 76.5585 331.008 79.7617C329.637 82.965 328.952 86.7861 328.952 91.2345V91.282C328.952 95.7495 329.637 99.6086 331.008 102.859C332.379 106.11 334.322 108.61 336.845 110.359C339.368 112.108 342.319 112.982 345.699 112.982C348.261 112.982 350.546 112.517 352.545 111.576C354.544 110.635 356.23 109.275 357.582 107.498C358.934 105.72 359.895 103.563 360.457 101.034L360.543 100.597H373.577L373.529 101.082C373.12 105.578 371.682 109.58 369.226 113.077C366.769 116.575 363.523 119.322 359.486 121.309C355.449 123.296 350.85 124.284 345.699 124.284C339.482 124.284 334.103 122.963 329.552 120.311V120.301Z" fill="#FAFAFA"/>
<path d="M382.812 59.5156H395.714V84.0391H395.98C397.218 81.102 399.065 78.8397 401.521 77.2714C403.978 75.703 406.977 74.9141 410.509 74.9141C414.042 74.9141 416.917 75.6745 419.392 77.1858C421.868 78.6971 423.772 80.8358 425.115 83.6018C426.457 86.3678 427.123 89.6566 427.123 93.4777V123.163H414.175V96.1202C414.175 92.8314 413.394 90.246 411.833 88.3829C410.271 86.5199 408.015 85.5789 405.073 85.5789C403.188 85.5789 401.54 86.0257 400.15 86.9286C398.751 87.8221 397.656 89.0578 396.885 90.6357C396.104 92.2135 395.714 94.029 395.714 96.0822V123.163H382.812V59.5156Z" fill="#FAFAFA"/>
<path d="M442.966 122.079C440.567 120.862 438.691 119.17 437.359 117.003C436.016 114.845 435.35 112.384 435.35 109.618V109.532C435.35 106.652 436.073 104.19 437.511 102.146C438.958 100.103 441.053 98.4965 443.804 97.3178C446.556 96.1392 449.898 95.4168 453.811 95.1602L472.282 94.01V102.042L455.753 103.145C453.278 103.297 451.393 103.867 450.098 104.865C448.803 105.863 448.155 107.203 448.155 108.876V108.962C448.155 110.701 448.822 112.06 450.145 113.039C451.469 114.028 453.249 114.513 455.496 114.513C457.41 114.513 459.124 114.142 460.647 113.391C462.161 112.64 463.361 111.614 464.227 110.302C465.093 108.99 465.531 107.526 465.531 105.911V91.5292C465.531 89.438 464.865 87.7936 463.541 86.5865C462.218 85.3793 460.285 84.7805 457.753 84.7805C455.22 84.7805 453.421 85.2747 452.011 86.2538C450.602 87.2423 449.726 88.497 449.403 90.0273L449.317 90.4266H437.473L437.52 89.8943C437.787 86.9857 438.768 84.4003 440.462 82.1285C442.157 79.8663 444.509 78.0888 447.527 76.8151C450.545 75.5319 454.135 74.8951 458.286 74.8951C462.437 74.8951 465.931 75.5509 468.93 76.8626C471.939 78.1743 474.272 80.0184 475.938 82.3947C477.604 84.7805 478.432 87.556 478.432 90.7307V123.153H465.531V116.138H465.265C464.351 117.726 463.199 119.113 461.818 120.282C460.438 121.461 458.848 122.355 457.067 122.972C455.287 123.59 453.363 123.894 451.297 123.894C448.146 123.894 445.366 123.286 442.966 122.06V122.079Z" fill="#FAFAFA"/>
<path d="M490.334 67.8232C488.991 66.4829 488.325 64.9051 488.325 63.0801C488.325 61.2551 488.991 59.6487 490.334 58.337C491.676 57.0253 493.314 56.3789 495.256 56.3789C497.198 56.3789 498.836 57.0348 500.159 58.337C501.483 59.6487 502.149 61.2266 502.149 63.0801C502.149 64.9336 501.483 66.4829 500.159 67.8232C498.836 69.1634 497.198 69.8288 495.256 69.8288C493.314 69.8288 491.667 69.1634 490.334 67.8232ZM488.763 75.8741H501.711V123.163H488.763V75.8741Z" fill="#FAFAFA"/>
<path d="M512.137 75.8741H525.038V83.6398H525.304C526.542 80.9309 528.37 78.8017 530.779 77.2428C533.197 75.684 536.187 74.9046 539.748 74.9046C544.965 74.9046 548.993 76.4729 551.83 79.6001C554.677 82.7273 556.095 87.0807 556.095 92.6318V123.153H543.194V95.3217C543.194 92.2325 542.461 89.8372 541.005 88.1358C539.548 86.4344 537.377 85.5789 534.492 85.5789C532.578 85.5789 530.912 86.0161 529.503 86.9001C528.094 87.7841 526.99 89.0008 526.209 90.5596C525.428 92.1185 525.038 93.9245 525.038 95.9871V123.163H512.137V75.8741Z" fill="#FAFAFA"/>
</svg>
