<svg width="104" height="114" viewBox="0 0 104 114" fill="none" xmlns="http://www.w3.org/2000/svg">
<path d="M51.7676 113.515C50.9816 113.515 50.2076 113.287 49.5416 112.831C48.4436 112.093 47.7896 110.851 47.7896 109.531V64.0337C47.7896 62.4077 48.7796 60.9437 50.2856 60.3378L98.0993 41.1079C99.3292 40.6099 100.721 40.7599 101.819 41.5039C102.917 42.2479 103.571 43.4839 103.571 44.8099L103.469 90.3015C103.469 91.9215 102.479 93.3795 100.973 93.9855L53.2616 113.221C52.7816 113.413 52.2776 113.509 51.7736 113.509L51.7676 113.515ZM55.7516 66.7277V103.633L95.5013 87.6075L95.5853 50.7078L55.7516 66.7277Z" fill="#181823"/>
<path d="M3.97797 72.6916C3.19198 72.6916 2.41798 72.4636 1.75199 72.0077C0.653995 71.2697 0 70.0277 0 68.7077V23.216C0 21.59 0.989992 20.126 2.49598 19.52L50.3036 0.290179C51.5336 -0.207817 52.9256 -0.0578181 54.0236 0.686176C55.1216 1.43017 55.7756 2.66616 55.7756 3.99215L55.6736 49.4838C55.6736 51.1038 54.6836 52.5618 53.1776 53.1678L5.46596 72.4036C4.98596 72.5956 4.48197 72.6916 3.97797 72.6916ZM7.96194 25.904V62.8097L47.7116 46.7838L47.7956 9.88411L7.96194 25.904Z" fill="#181823"/>
<path d="M27.8698 93.1035C27.0838 93.1035 26.3098 92.8755 25.6438 92.4195C24.5458 91.6815 23.8918 90.4395 23.8918 89.1196V43.6219C23.8918 41.9959 24.8818 40.5319 26.3878 39.9259L74.2014 20.6961C75.4314 20.2041 76.8234 20.3481 77.9214 21.0921C79.0194 21.8361 79.6734 23.072 79.6734 24.398L79.5714 69.8897C79.5714 71.5097 78.5814 72.9677 77.0754 73.5737L29.3637 92.8095C28.8837 93.0015 28.3798 93.0975 27.8758 93.0975L27.8698 93.1035ZM31.8537 46.3159V83.2216L71.6034 67.1957L71.6874 30.296L31.8537 46.3159Z" fill="url(#paint0_linear_5767_1336)"/>
<mask id="mask0_5767_1336" style="mask-type:luminance" maskUnits="userSpaceOnUse" x="69" y="43" width="19" height="21">
<path d="M82.1574 43.0459C75.9114 42.6559 66.7495 52.9518 70.0674 59.5038C72.1314 63.5657 80.1654 64.6517 83.5553 61.8737C88.4513 57.8538 88.5053 46.0459 82.1574 43.0459C88.5113 46.0459 75.9114 42.6559 82.1574 43.0459Z" fill="white"/>
</mask>
<g mask="url(#mask0_5767_1336)">
<path d="M27.8698 93.1035C27.0838 93.1035 26.3098 92.8755 25.6438 92.4195C24.5458 91.6815 23.8918 90.4395 23.8918 89.1195V43.6219C23.8918 41.9959 24.8818 40.5319 26.3878 39.9259L74.2014 20.696C75.4314 20.204 76.8234 20.348 77.9214 21.092C79.0194 21.836 79.6734 23.072 79.6734 24.398L79.5714 69.8897C79.5714 71.5097 78.5814 72.9676 77.0754 73.5736L29.3637 92.8095C28.8837 93.0015 28.3798 93.0975 27.8758 93.0975L27.8698 93.1035ZM31.8537 46.3158V83.2216L71.6034 67.1957L71.6874 30.296L31.8537 46.3158Z" fill="url(#paint1_linear_5767_1336)"/>
<path d="M51.7676 113.515C50.9816 113.515 50.2076 113.287 49.5416 112.831C48.4436 112.093 47.7896 110.851 47.7896 109.531V64.0337C47.7896 62.4077 48.7796 60.9437 50.2856 60.3377L98.0993 41.1079C99.3292 40.6099 100.721 40.7599 101.819 41.5039C102.917 42.2479 103.571 43.4839 103.571 44.8099L103.469 90.3015C103.469 91.9215 102.479 93.3795 100.973 93.9855L53.2616 113.221C52.7816 113.413 52.2776 113.509 51.7736 113.509L51.7676 113.515ZM55.7516 66.7277V103.633L95.5013 87.6075L95.5853 50.7078L55.7516 66.7277Z" fill="#181823"/>
</g>
<mask id="mask1_5767_1336" style="mask-type:luminance" maskUnits="userSpaceOnUse" x="19" y="50" width="18" height="20">
<path d="M30.5997 51.7878C24.2878 52.4058 19.5238 54.9858 19.8058 62.0537C20.0218 67.3757 23.3098 69.6977 28.5237 68.9717C34.7757 68.0957 36.6477 59.7318 36.7797 54.3198C36.8037 53.2098 37.0317 48.3079 30.5997 51.7938C24.2878 52.4118 37.0317 48.3079 30.5997 51.7938V51.7878Z" fill="white"/>
</mask>
<g mask="url(#mask1_5767_1336)">
<path d="M27.8698 93.1035C27.0838 93.1035 26.3098 92.8755 25.6438 92.4195C24.5458 91.6815 23.8918 90.4395 23.8918 89.1196V43.6219C23.8918 41.9959 24.8818 40.5319 26.3878 39.9259L74.2015 20.6961C75.4315 20.2041 76.8234 20.3481 77.9214 21.0921C79.0194 21.8361 79.6734 23.072 79.6734 24.398L79.5714 69.8897C79.5714 71.5097 78.5814 72.9677 77.0754 73.5737L29.3638 92.8095C28.8838 93.0015 28.3798 93.0975 27.8758 93.0975L27.8698 93.1035ZM31.8538 46.3159V83.2216L71.6035 67.1957L71.6875 30.296L31.8538 46.3159Z" fill="url(#paint2_linear_5767_1336)"/>
<path d="M3.97797 72.6917C3.19198 72.6917 2.41798 72.4637 1.75199 72.0077C0.653995 71.2697 0 70.0277 0 68.7077V23.216C0 21.59 0.989992 20.126 2.49598 19.5201L50.3036 0.290195C51.5336 -0.207802 52.9256 -0.0578028 54.0236 0.686192C55.1216 1.43019 55.7756 2.66618 55.7756 3.99217L55.6736 49.4838C55.6736 51.1038 54.6836 52.5618 53.1776 53.1678L5.46596 72.4037C4.98596 72.5957 4.48197 72.6917 3.97797 72.6917ZM7.96194 25.904V62.8097L47.7116 46.7839L47.7956 9.88412L7.96194 25.904Z" fill="#181823"/>
</g>
<defs>
<linearGradient id="paint0_linear_5767_1336" x1="51.7796" y1="93.1035" x2="51.7796" y2="20.4141" gradientUnits="userSpaceOnUse">
<stop stop-color="#EC4280"/>
<stop offset="0.15" stop-color="#E23D8A"/>
<stop offset="0.4" stop-color="#C930A6"/>
<stop offset="0.73" stop-color="#9F1BD4"/>
<stop offset="1" stop-color="#7908FF"/>
</linearGradient>
<linearGradient id="paint1_linear_5767_1336" x1="51.7796" y1="93.1035" x2="51.7796" y2="20.414" gradientUnits="userSpaceOnUse">
<stop stop-color="#EC4280"/>
<stop offset="0.15" stop-color="#E23D8A"/>
<stop offset="0.4" stop-color="#C930A6"/>
<stop offset="0.73" stop-color="#9F1BD4"/>
<stop offset="1" stop-color="#7908FF"/>
</linearGradient>
<linearGradient id="paint2_linear_5767_1336" x1="51.7796" y1="93.1035" x2="51.7796" y2="20.4141" gradientUnits="userSpaceOnUse">
<stop stop-color="#EC4280"/>
<stop offset="0.15" stop-color="#E23D8A"/>
<stop offset="0.4" stop-color="#C930A6"/>
<stop offset="0.73" stop-color="#9F1BD4"/>
<stop offset="1" stop-color="#7908FF"/>
</linearGradient>
</defs>
</svg>
