<svg width="104" height="114" viewBox="0 0 104 114" fill="none" xmlns="http://www.w3.org/2000/svg">
<path d="M51.7675 113.515C50.9815 113.515 50.2075 113.287 49.5415 112.831C48.4435 112.093 47.7896 110.851 47.7896 109.531V64.0337C47.7896 62.4077 48.7795 60.9437 50.2855 60.3378L98.0992 41.1079C99.3292 40.6099 100.721 40.7599 101.819 41.5039C102.917 42.2479 103.571 43.4839 103.571 44.8099L103.469 90.3015C103.469 91.9215 102.479 93.3795 100.973 93.9855L53.2615 113.221C52.7815 113.413 52.2775 113.509 51.7735 113.509L51.7675 113.515ZM55.7515 66.7277V103.633L95.5012 87.6075L95.5852 50.7078L55.7515 66.7277Z" fill="#FAFAFA"/>
<path d="M3.97797 72.6916C3.19198 72.6916 2.41798 72.4636 1.75199 72.0077C0.653995 71.2697 0 70.0277 0 68.7077V23.216C0 21.59 0.989992 20.126 2.49598 19.52L50.3036 0.290179C51.5336 -0.207817 52.9256 -0.0578181 54.0236 0.686176C55.1216 1.43017 55.7756 2.66616 55.7756 3.99215L55.6736 49.4838C55.6736 51.1038 54.6836 52.5618 53.1776 53.1678L5.46596 72.4036C4.98596 72.5956 4.48197 72.6916 3.97797 72.6916ZM7.96194 25.904V62.8097L47.7116 46.7838L47.7956 9.88411L7.96194 25.904Z" fill="#FAFAFA"/>
<path d="M27.8698 93.1035C27.0838 93.1035 26.3098 92.8755 25.6438 92.4195C24.5458 91.6815 23.8918 90.4395 23.8918 89.1196V43.6219C23.8918 41.9959 24.8818 40.5319 26.3878 39.9259L74.2015 20.6961C75.4315 20.2041 76.8234 20.3481 77.9214 21.0921C79.0194 21.8361 79.6734 23.072 79.6734 24.398L79.5714 69.8897C79.5714 71.5097 78.5814 72.9677 77.0754 73.5737L29.3638 92.8095C28.8838 93.0015 28.3798 93.0975 27.8758 93.0975L27.8698 93.1035ZM31.8538 46.3159V83.2216L71.6035 67.1957L71.6875 30.296L31.8538 46.3159Z" fill="#B8B8B8"/>
<mask id="mask0_6597_29" style="mask-type:luminance" maskUnits="userSpaceOnUse" x="69" y="43" width="19" height="21">
<path d="M82.1573 43.0459C75.9113 42.6559 66.7494 52.9518 70.0674 59.5038C72.1314 63.5657 80.1653 64.6517 83.5553 61.8737C88.4512 57.8538 88.5052 46.0459 82.1573 43.0459C88.5112 46.0459 75.9113 42.6559 82.1573 43.0459Z" fill="white"/>
</mask>
<g mask="url(#mask0_6597_29)">
<path d="M27.8698 93.1035C27.0838 93.1035 26.3098 92.8755 25.6438 92.4195C24.5458 91.6815 23.8918 90.4395 23.8918 89.1195V43.6219C23.8918 41.9959 24.8818 40.5319 26.3878 39.9259L74.2015 20.696C75.4315 20.204 76.8234 20.348 77.9214 21.092C79.0194 21.836 79.6734 23.072 79.6734 24.398L79.5714 69.8897C79.5714 71.5097 78.5814 72.9676 77.0754 73.5736L29.3638 92.8095C28.8838 93.0015 28.3798 93.0975 27.8758 93.0975L27.8698 93.1035ZM31.8538 46.3158V83.2216L71.6035 67.1957L71.6875 30.296L31.8538 46.3158Z" fill="#B8B8B8"/>
<path d="M51.7678 113.515C50.9818 113.515 50.2078 113.287 49.5418 112.831C48.4438 112.093 47.7898 110.851 47.7898 109.531V64.0337C47.7898 62.4077 48.7798 60.9437 50.2858 60.3377L98.0994 41.1079C99.3294 40.6099 100.721 40.7599 101.819 41.5039C102.917 42.2479 103.571 43.4839 103.571 44.8099L103.469 90.3015C103.469 91.9215 102.479 93.3795 100.973 93.9855L53.2618 113.221C52.7818 113.413 52.2778 113.509 51.7738 113.509L51.7678 113.515ZM55.7517 66.7277V103.633L95.5014 87.6075L95.5854 50.7078L55.7517 66.7277Z" fill="#FAFAFA"/>
</g>
<mask id="mask1_6597_29" style="mask-type:luminance" maskUnits="userSpaceOnUse" x="19" y="50" width="18" height="20">
<path d="M30.5998 51.7878C24.2878 52.4058 19.5238 54.9858 19.8058 62.0537C20.0218 67.3757 23.3098 69.6977 28.5238 68.9717C34.7757 68.0957 36.6477 59.7318 36.7797 54.3198C36.8037 53.2098 37.0317 48.3079 30.5998 51.7938C24.2878 52.4118 37.0317 48.3079 30.5998 51.7938V51.7878Z" fill="white"/>
</mask>
<g mask="url(#mask1_6597_29)">
<path d="M27.8698 93.1035C27.0838 93.1035 26.3098 92.8755 25.6438 92.4195C24.5458 91.6815 23.8918 90.4395 23.8918 89.1196V43.6219C23.8918 41.9959 24.8818 40.5319 26.3878 39.9259L74.2015 20.6961C75.4315 20.2041 76.8234 20.3481 77.9214 21.0921C79.0194 21.8361 79.6734 23.072 79.6734 24.398L79.5714 69.8897C79.5714 71.5097 78.5814 72.9677 77.0754 73.5737L29.3638 92.8095C28.8838 93.0015 28.3798 93.0975 27.8758 93.0975L27.8698 93.1035ZM31.8538 46.3159V83.2216L71.6035 67.1957L71.6875 30.296L31.8538 46.3159Z" fill="#B8B8B8"/>
<path d="M3.97797 72.6917C3.19198 72.6917 2.41798 72.4637 1.75199 72.0077C0.653995 71.2697 0 70.0277 0 68.7077V23.216C0 21.59 0.989992 20.126 2.49598 19.5201L50.3036 0.290195C51.5336 -0.207802 52.9256 -0.0578028 54.0236 0.686192C55.1216 1.43019 55.7756 2.66618 55.7756 3.99217L55.6736 49.4838C55.6736 51.1038 54.6836 52.5618 53.1776 53.1678L5.46596 72.4037C4.98596 72.5957 4.48197 72.6917 3.97797 72.6917ZM7.96194 25.904V62.8097L47.7116 46.7839L47.7956 9.88412L7.96194 25.904Z" fill="#FAFAFA"/>
</g>
</svg>
